<mxfile host="app.diagrams.net" agent="Mozilla/5.0 (Windows NT 10.0; Win64; x64) AppleWebKit/537.36 (KHTML, like Gecko) Chrome/134.0.0.0 Safari/537.36" version="26.2.5">
  <diagram name="Page-1" id="pTbVG6zQzzvHFAVXvu1O">
    <mxGraphModel grid="1" page="1" gridSize="10" guides="1" tooltips="1" connect="1" arrows="1" fold="1" pageScale="1" pageWidth="850" pageHeight="1100" math="0" shadow="0">
      <root>
        <mxCell id="0" />
        <mxCell id="1" parent="0" />
        <mxCell id="D_MsiycBnaQ40qIo8eEy-1" value="" style="rounded=1;whiteSpace=wrap;html=1;" vertex="1" parent="1">
          <mxGeometry x="-400" y="40" width="730" height="370" as="geometry" />
        </mxCell>
        <mxCell id="D_MsiycBnaQ40qIo8eEy-3" value="" style="image;aspect=fixed;perimeter=ellipsePerimeter;html=1;align=center;shadow=0;dashed=0;spacingTop=3;image=img/lib/active_directory/web_server.svg;" vertex="1" parent="1">
          <mxGeometry x="217" y="120" width="72" height="90" as="geometry" />
        </mxCell>
        <mxCell id="D_MsiycBnaQ40qIo8eEy-10" value="" style="endArrow=none;html=1;rounded=0;strokeWidth=4;" edge="1" parent="1">
          <mxGeometry width="50" height="50" relative="1" as="geometry">
            <mxPoint x="-296" y="340" as="sourcePoint" />
            <mxPoint x="234" y="340" as="targetPoint" />
          </mxGeometry>
        </mxCell>
        <mxCell id="0HFaX-LjTRW0aqmlWAR--14" value="" style="endArrow=none;html=1;rounded=0;strokeWidth=4;" edge="1" parent="1">
          <mxGeometry width="50" height="50" relative="1" as="geometry">
            <mxPoint x="-297.52" y="343.17" as="sourcePoint" />
            <mxPoint x="-298.28638495514997" y="203.83652300090193" as="targetPoint" />
          </mxGeometry>
        </mxCell>
        <mxCell id="D_MsiycBnaQ40qIo8eEy-11" value="&lt;font&gt;Zabbix server&lt;/font&gt;&lt;div&gt;&lt;font&gt;CPU: 8-16 cores&lt;/font&gt;&lt;/div&gt;&lt;div&gt;&lt;font&gt;RAM: 16-32 GB&lt;/font&gt;&lt;/div&gt;&lt;div&gt;&lt;font&gt;Storage: 100-200 GB&lt;/font&gt;&lt;/div&gt;" style="text;strokeColor=none;align=center;fillColor=light-dark(#FFFFFF,#66B2FF);html=1;verticalAlign=middle;whiteSpace=wrap;rounded=1;labelBackgroundColor=light-dark(#FFFFFF,#66B2FF);fontColor=light-dark(#000000,#000000);" vertex="1" parent="1">
          <mxGeometry x="-356.25" y="230" width="117.5" height="60" as="geometry" />
        </mxCell>
        <mxCell id="0HFaX-LjTRW0aqmlWAR--17" value="" style="endArrow=none;html=1;rounded=0;strokeWidth=4;" edge="1" parent="1">
          <mxGeometry width="50" height="50" relative="1" as="geometry">
            <mxPoint x="-120.13999999999999" y="341.34000000000003" as="sourcePoint" />
            <mxPoint x="-120.62" y="202.17" as="targetPoint" />
          </mxGeometry>
        </mxCell>
        <mxCell id="0HFaX-LjTRW0aqmlWAR--15" value="&lt;font style=&quot;color: rgb(255, 255, 255);&quot;&gt;PostgreSQL server&lt;/font&gt;&lt;div style=&quot;color: rgb(255, 255, 255);&quot;&gt;CPU: 8-16 cores&lt;/div&gt;&lt;div style=&quot;color: rgb(255, 255, 255);&quot;&gt;RAM: 32-64 GB&lt;/div&gt;&lt;div style=&quot;color: rgb(255, 255, 255);&quot;&gt;Storage: 500 GB - 1 TB&lt;/div&gt;" style="text;strokeColor=none;align=center;fillColor=light-dark(#FFFFFF,#66B2FF);html=1;verticalAlign=middle;whiteSpace=wrap;rounded=1;labelBackgroundColor=light-dark(#FFFFFF,#66B2FF);fontColor=light-dark(#000000,#000000);fontFamily=Helvetica;fontSize=12;" vertex="1" parent="1">
          <mxGeometry x="-190.12" y="230" width="140" height="60" as="geometry" />
        </mxCell>
        <mxCell id="0HFaX-LjTRW0aqmlWAR--19" value="" style="endArrow=none;html=1;rounded=0;strokeWidth=4;" edge="1" parent="1">
          <mxGeometry width="50" height="50" relative="1" as="geometry">
            <mxPoint x="50.48000000000002" y="341.34000000000003" as="sourcePoint" />
            <mxPoint x="50" y="202.17" as="targetPoint" />
          </mxGeometry>
        </mxCell>
        <mxCell id="0HFaX-LjTRW0aqmlWAR--20" value="" style="endArrow=none;html=1;rounded=0;strokeWidth=4;" edge="1" parent="1">
          <mxGeometry width="50" height="50" relative="1" as="geometry">
            <mxPoint x="233.48000000000002" y="341.34000000000003" as="sourcePoint" />
            <mxPoint x="233" y="202.17" as="targetPoint" />
          </mxGeometry>
        </mxCell>
        <mxCell id="D_MsiycBnaQ40qIo8eEy-4" value="" style="verticalLabelPosition=bottom;sketch=0;aspect=fixed;html=1;verticalAlign=top;strokeColor=none;align=center;outlineConnect=0;shape=mxgraph.citrix.proxy_server;" vertex="1" parent="1">
          <mxGeometry x="18" y="120" width="76.5" height="90" as="geometry" />
        </mxCell>
        <mxCell id="D_MsiycBnaQ40qIo8eEy-6" value="" style="image;aspect=fixed;html=1;points=[];align=center;fontSize=12;image=img/lib/azure2/databases/Azure_Database_PostgreSQL_Server.svg;" vertex="1" parent="1">
          <mxGeometry x="-150.93" y="120" width="61.63" height="82.17" as="geometry" />
        </mxCell>
        <mxCell id="D_MsiycBnaQ40qIo8eEy-7" value="" style="sketch=0;outlineConnect=0;fontColor=#232F3E;gradientColor=none;fillColor=#232F3D;strokeColor=none;dashed=0;verticalLabelPosition=bottom;verticalAlign=top;align=center;html=1;fontSize=12;fontStyle=0;aspect=fixed;pointerEvents=1;shape=mxgraph.aws4.traditional_server;" vertex="1" parent="1">
          <mxGeometry x="-320" y="126" width="45" height="78" as="geometry" />
        </mxCell>
        <mxCell id="0HFaX-LjTRW0aqmlWAR--18" value="&lt;font style=&quot;color: rgb(255, 255, 255);&quot;&gt;Zabbix Proxy server&lt;/font&gt;&lt;div style=&quot;color: rgb(255, 255, 255);&quot;&gt;CPU: 4-8 cores&lt;/div&gt;&lt;div style=&quot;color: rgb(255, 255, 255);&quot;&gt;RAM: 8-16 GB&lt;/div&gt;&lt;div style=&quot;color: rgb(255, 255, 255);&quot;&gt;Storage: 50-100 GB&lt;/div&gt;" style="text;strokeColor=none;align=center;fillColor=light-dark(#FFFFFF,#66B2FF);html=1;verticalAlign=middle;whiteSpace=wrap;rounded=1;labelBackgroundColor=light-dark(#FFFFFF,#66B2FF);fontColor=light-dark(#000000,#000000);" vertex="1" parent="1">
          <mxGeometry x="-13.75" y="230" width="140" height="60" as="geometry" />
        </mxCell>
        <mxCell id="0HFaX-LjTRW0aqmlWAR--24" value="&lt;font style=&quot;color: rgb(255, 255, 255);&quot;&gt;Zabbix Web Frontend&lt;/font&gt;&lt;div style=&quot;color: rgb(255, 255, 255);&quot;&gt;&lt;div&gt;CPU: 4-8 cores&lt;/div&gt;&lt;div&gt;RAM: 8-16 GB&lt;/div&gt;&lt;div&gt;Storage: 50-100 GB&lt;/div&gt;&lt;/div&gt;" style="text;strokeColor=none;align=center;fillColor=light-dark(#FFFFFF,#66B2FF);html=1;verticalAlign=middle;whiteSpace=wrap;rounded=1;labelBackgroundColor=light-dark(#FFFFFF,#66B2FF);fontColor=light-dark(#000000,#000000);glass=0;" vertex="1" parent="1">
          <mxGeometry x="165" y="230" width="140" height="60" as="geometry" />
        </mxCell>
        <mxCell id="0HFaX-LjTRW0aqmlWAR--28" value="" style="endArrow=none;html=1;rounded=0;strokeWidth=4;" edge="1" parent="1">
          <mxGeometry width="50" height="50" relative="1" as="geometry">
            <mxPoint x="-298" y="440" as="sourcePoint" />
            <mxPoint x="-298" y="340" as="targetPoint" />
          </mxGeometry>
        </mxCell>
        <mxCell id="0HFaX-LjTRW0aqmlWAR--29" value="" style="endArrow=none;html=1;rounded=0;strokeWidth=4;entryX=1.013;entryY=0.596;entryDx=0;entryDy=0;entryPerimeter=0;" edge="1" parent="1">
          <mxGeometry width="50" height="50" relative="1" as="geometry">
            <mxPoint x="-296" y="440" as="sourcePoint" />
            <mxPoint x="-489.8299999999999" y="440.64" as="targetPoint" />
          </mxGeometry>
        </mxCell>
        <mxCell id="0HFaX-LjTRW0aqmlWAR--32" value="" style="rounded=1;whiteSpace=wrap;html=1;" vertex="1" parent="1">
          <mxGeometry x="-1232" y="40" width="580" height="370" as="geometry" />
        </mxCell>
        <mxCell id="0HFaX-LjTRW0aqmlWAR--34" value="" style="endArrow=none;html=1;rounded=0;strokeWidth=4;" edge="1" parent="1">
          <mxGeometry width="50" height="50" relative="1" as="geometry">
            <mxPoint x="-1130" y="340" as="sourcePoint" />
            <mxPoint x="-780" y="340" as="targetPoint" />
          </mxGeometry>
        </mxCell>
        <mxCell id="0HFaX-LjTRW0aqmlWAR--35" value="" style="endArrow=none;html=1;rounded=0;strokeWidth=4;" edge="1" parent="1">
          <mxGeometry width="50" height="50" relative="1" as="geometry">
            <mxPoint x="-1128.52" y="342.17" as="sourcePoint" />
            <mxPoint x="-1129.2863849551502" y="202.83652300090193" as="targetPoint" />
          </mxGeometry>
        </mxCell>
        <mxCell id="0HFaX-LjTRW0aqmlWAR--37" value="&lt;font&gt;Zabbix server&lt;/font&gt;&lt;div&gt;&lt;font&gt;CPU: 8-16 cores&lt;/font&gt;&lt;/div&gt;&lt;div&gt;&lt;font&gt;RAM: 16-32 GB&lt;/font&gt;&lt;/div&gt;&lt;div&gt;&lt;font&gt;Storage: 100-200 GB&lt;/font&gt;&lt;/div&gt;" style="text;strokeColor=none;align=center;fillColor=light-dark(#FFFFFF,#66B2FF);html=1;verticalAlign=middle;whiteSpace=wrap;rounded=1;labelBackgroundColor=light-dark(#FFFFFF,#66B2FF);fontColor=light-dark(#000000,#000000);" vertex="1" parent="1">
          <mxGeometry x="-1188.25" y="230" width="117.5" height="60" as="geometry" />
        </mxCell>
        <mxCell id="0HFaX-LjTRW0aqmlWAR--38" value="" style="endArrow=none;html=1;rounded=0;strokeWidth=4;" edge="1" parent="1">
          <mxGeometry width="50" height="50" relative="1" as="geometry">
            <mxPoint x="-952.1399999999999" y="341.34000000000003" as="sourcePoint" />
            <mxPoint x="-952.6199999999999" y="202.17" as="targetPoint" />
          </mxGeometry>
        </mxCell>
        <mxCell id="0HFaX-LjTRW0aqmlWAR--40" value="&lt;font style=&quot;color: rgb(255, 255, 255);&quot;&gt;PostgreSQL server&lt;/font&gt;&lt;div style=&quot;color: rgb(255, 255, 255);&quot;&gt;CPU: 8-16 cores&lt;/div&gt;&lt;div style=&quot;color: rgb(255, 255, 255);&quot;&gt;RAM: 32-64 GB&lt;/div&gt;&lt;div style=&quot;color: rgb(255, 255, 255);&quot;&gt;Storage: 500 GB - 1 TB&lt;/div&gt;" style="text;strokeColor=none;align=center;fillColor=light-dark(#FFFFFF,#66B2FF);html=1;verticalAlign=middle;whiteSpace=wrap;rounded=1;labelBackgroundColor=light-dark(#FFFFFF,#66B2FF);fontColor=light-dark(#000000,#000000);fontFamily=Helvetica;fontSize=12;" vertex="1" parent="1">
          <mxGeometry x="-1022.1199999999999" y="230" width="140" height="60" as="geometry" />
        </mxCell>
        <mxCell id="0HFaX-LjTRW0aqmlWAR--41" value="" style="endArrow=none;html=1;rounded=0;strokeWidth=4;" edge="1" parent="1">
          <mxGeometry width="50" height="50" relative="1" as="geometry">
            <mxPoint x="-781.52" y="341.34000000000003" as="sourcePoint" />
            <mxPoint x="-782" y="202.17" as="targetPoint" />
          </mxGeometry>
        </mxCell>
        <mxCell id="0HFaX-LjTRW0aqmlWAR--43" value="" style="verticalLabelPosition=bottom;sketch=0;aspect=fixed;html=1;verticalAlign=top;strokeColor=none;align=center;outlineConnect=0;shape=mxgraph.citrix.proxy_server;" vertex="1" parent="1">
          <mxGeometry x="-814" y="120" width="76.5" height="90" as="geometry" />
        </mxCell>
        <mxCell id="0HFaX-LjTRW0aqmlWAR--44" value="" style="image;aspect=fixed;html=1;points=[];align=center;fontSize=12;image=img/lib/azure2/databases/Azure_Database_PostgreSQL_Server.svg;" vertex="1" parent="1">
          <mxGeometry x="-982.9300000000001" y="120" width="61.63" height="82.17" as="geometry" />
        </mxCell>
        <mxCell id="0HFaX-LjTRW0aqmlWAR--45" value="" style="sketch=0;outlineConnect=0;fontColor=#232F3E;gradientColor=none;fillColor=#232F3D;strokeColor=none;dashed=0;verticalLabelPosition=bottom;verticalAlign=top;align=center;html=1;fontSize=12;fontStyle=0;aspect=fixed;pointerEvents=1;shape=mxgraph.aws4.traditional_server;" vertex="1" parent="1">
          <mxGeometry x="-1152" y="126" width="45" height="78" as="geometry" />
        </mxCell>
        <mxCell id="0HFaX-LjTRW0aqmlWAR--47" value="&lt;font style=&quot;color: rgb(255, 255, 255);&quot;&gt;Zabbix Proxy server&lt;/font&gt;&lt;div style=&quot;color: rgb(255, 255, 255);&quot;&gt;CPU: 4-8 cores&lt;/div&gt;&lt;div style=&quot;color: rgb(255, 255, 255);&quot;&gt;RAM: 8-16 GB&lt;/div&gt;&lt;div style=&quot;color: rgb(255, 255, 255);&quot;&gt;Storage: 50-100 GB&lt;/div&gt;" style="text;strokeColor=none;align=center;fillColor=light-dark(#FFFFFF,#66B2FF);html=1;verticalAlign=middle;whiteSpace=wrap;rounded=1;labelBackgroundColor=light-dark(#FFFFFF,#66B2FF);fontColor=light-dark(#000000,#000000);" vertex="1" parent="1">
          <mxGeometry x="-845.75" y="230" width="140" height="60" as="geometry" />
        </mxCell>
        <mxCell id="0HFaX-LjTRW0aqmlWAR--52" value="" style="endArrow=none;html=1;rounded=0;strokeWidth=4;" edge="1" parent="1">
          <mxGeometry width="50" height="50" relative="1" as="geometry">
            <mxPoint x="-782" y="440" as="sourcePoint" />
            <mxPoint x="-782" y="340" as="targetPoint" />
          </mxGeometry>
        </mxCell>
        <mxCell id="0HFaX-LjTRW0aqmlWAR--53" value="" style="endArrow=none;html=1;rounded=0;strokeWidth=4;entryX=1.013;entryY=0.596;entryDx=0;entryDy=0;entryPerimeter=0;exitX=0.049;exitY=0.611;exitDx=0;exitDy=0;exitPerimeter=0;" edge="1" parent="1" source="0HFaX-LjTRW0aqmlWAR--27">
          <mxGeometry width="50" height="50" relative="1" as="geometry">
            <mxPoint x="-584.79" y="440.37" as="sourcePoint" />
            <mxPoint x="-784" y="441" as="targetPoint" />
          </mxGeometry>
        </mxCell>
        <mxCell id="0HFaX-LjTRW0aqmlWAR--27" value="" style="sketch=0;points=[[0.015,0.015,0],[0.985,0.015,0],[0.985,0.985,0],[0.015,0.985,0],[0.25,0,0],[0.5,0,0],[0.75,0,0],[1,0.25,0],[1,0.5,0],[1,0.75,0],[0.75,1,0],[0.5,1,0],[0.25,1,0],[0,0.75,0],[0,0.5,0],[0,0.25,0]];verticalLabelPosition=bottom;html=1;verticalAlign=top;aspect=fixed;align=center;pointerEvents=1;shape=mxgraph.cisco19.rect;prIcon=l2_switch;fillColor=#FAFAFA;strokeColor=#005073;rounded=0;fontFamily=Helvetica;fontSize=12;fontColor=light-dark(#000000,#000000);labelBackgroundColor=light-dark(#FFFFFF,#66B2FF);" vertex="1" parent="1">
          <mxGeometry x="-580" y="387" width="90" height="90" as="geometry" />
        </mxCell>
        <mxCell id="0HFaX-LjTRW0aqmlWAR--54" value="Text" style="text;strokeColor=none;align=center;fillColor=none;html=1;verticalAlign=middle;whiteSpace=wrap;rounded=0;fontFamily=Helvetica;fontSize=12;fontColor=light-dark(#000000,#000000);labelBackgroundColor=light-dark(#FFFFFF,#66B2FF);" vertex="1" parent="1">
          <mxGeometry x="30" y="260" width="60" height="30" as="geometry" />
        </mxCell>
        <mxCell id="0HFaX-LjTRW0aqmlWAR--55" value="Text" style="text;strokeColor=none;align=center;fillColor=none;html=1;verticalAlign=middle;whiteSpace=wrap;rounded=0;fontFamily=Helvetica;fontSize=12;fontColor=light-dark(#000000,#000000);labelBackgroundColor=light-dark(#FFFFFF,#66B2FF);" vertex="1" parent="1">
          <mxGeometry x="30" y="260" width="60" height="30" as="geometry" />
        </mxCell>
        <mxCell id="0HFaX-LjTRW0aqmlWAR--56" value="&lt;font&gt;&lt;b&gt;Muhlhauser (AMER)&lt;/b&gt;&lt;/font&gt;&lt;div&gt;&lt;font&gt;&lt;b&gt;Primary&lt;/b&gt;&lt;/font&gt;&lt;/div&gt;" style="text;strokeColor=none;align=center;fillColor=light-dark(#FFFFFF,#66B2FF);html=1;verticalAlign=middle;whiteSpace=wrap;rounded=1;labelBackgroundColor=light-dark(#FFFFFF,#66B2FF);fontColor=light-dark(#000000, #1b1b1b);fontFamily=Helvetica;fontSize=16;" vertex="1" parent="1">
          <mxGeometry x="-127.5" y="52" width="185" height="50" as="geometry" />
        </mxCell>
        <mxCell id="0HFaX-LjTRW0aqmlWAR--57" value="&lt;font&gt;&lt;b&gt;Congressional (AMER)&lt;/b&gt;&lt;/font&gt;&lt;div&gt;&lt;font&gt;&lt;b&gt;Secondary&lt;/b&gt;&lt;/font&gt;&lt;/div&gt;" style="text;strokeColor=none;align=center;fillColor=light-dark(#FFFFFF,#66B2FF);html=1;verticalAlign=middle;whiteSpace=wrap;rounded=1;labelBackgroundColor=light-dark(#FFFFFF,#66B2FF);fontColor=light-dark(#000000, #1b1b1b);fontFamily=Helvetica;fontSize=16;" vertex="1" parent="1">
          <mxGeometry x="-1035" y="52" width="185" height="50" as="geometry" />
        </mxCell>
      </root>
    </mxGraphModel>
  </diagram>
</mxfile>
